# xmcd
#
# Track frame offsets: 
#        150
#        13556
#        24451
#        37569
#        48365
#        60362
#        70601
#        81965
#        94293
#        104749
#
# Disc length: 1559 seconds
#
# Revision: 0
# Processed by: cddbd v1.5.2PL0 Copyright (c) Steve Scherf et al.
# Submitted via: ExactAudioCopyFreeDBPlugin 1.0
#
DISCID=7106150a
DTITLE=Rhythm Ranch - Ranch Dressing
DYEAR=1998
DGENRE=Western Swing
TTITLE0=Thats What I Like About The South
TTITLE1=Tired Of The Way
TTITLE2=KENTUCKY
TTITLE3=Blue Moon Of Kentucky
TTITLE4=It Aint The Age
TTITLE5=Hot Rod
TTITLE6=Be Careful
TTITLE7=Would It Matter At All
TTITLE8=House In Harlem (Studio)
TTITLE9=Parts Unknown (Studio)
EXTD=
EXTT0=
EXTT1=
EXTT2=
EXTT3=
EXTT4=
EXTT5=
EXTT6=
EXTT7=
EXTT8=
EXTT9=
PLAYORDER=
